<?xml version="1.0" encoding="UTF-8"?>
<svg xmlns="http://www.w3.org/2000/svg" xmlns:xlink="http://www.w3.org/1999/xlink" viewBox="0 0 50 50" width="50px" height="50px">
<g id="surface188734415">
<path style=" stroke:none;fill-rule:nonzero;fill:none;fill-opacity:1;" d="M 25 50 C 11.191406 50 0 38.808594 0 25 C 0 11.191406 11.191406 0 25 0 C 38.808594 0 50 11.191406 50 25 C 50 38.808594 38.808594 50 25 50 Z M 25 50 "/>
<path style=" stroke:none;fill-rule:nonzero;fill:rgb(0%,0%,0%);fill-opacity:1;" d="M 17.800781 7.398438 C 12.0625 7.398438 7.398438 12.0625 7.398438 17.800781 L 7.398438 32.199219 C 7.398438 37.9375 12.0625 42.601562 17.800781 42.601562 L 32.199219 42.601562 C 37.9375 42.601562 42.601562 37.9375 42.601562 32.199219 L 42.601562 17.800781 C 42.601562 12.0625 37.9375 7.398438 32.199219 7.398438 Z M 34.601562 13.800781 C 35.480469 13.800781 36.199219 14.519531 36.199219 15.398438 C 36.199219 16.28125 35.480469 17 34.601562 17 C 33.71875 17 33 16.28125 33 15.398438 C 33 14.519531 33.71875 13.800781 34.601562 13.800781 Z M 25 16.199219 C 29.855469 16.199219 33.800781 20.144531 33.800781 25 C 33.800781 29.855469 29.855469 33.800781 25 33.800781 C 20.144531 33.800781 16.199219 29.855469 16.199219 25 C 16.199219 20.144531 20.144531 16.199219 25 16.199219 Z M 25 17.800781 C 21.03125 17.800781 17.800781 21.03125 17.800781 25 C 17.800781 28.96875 21.03125 32.199219 25 32.199219 C 28.96875 32.199219 32.199219 28.96875 32.199219 25 C 32.199219 21.03125 28.96875 17.800781 25 17.800781 Z M 25 17.800781 "/>
</g>
</svg>
